<?xml version="1.0" encoding="UTF-8"?>
<svg id="Layer_1" xmlns="http://www.w3.org/2000/svg" version="1.1" xmlns:xlink="http://www.w3.org/1999/xlink" viewBox="0 0 1024 1024">
  <!-- Generator: Adobe Illustrator 29.7.1, SVG Export Plug-In . SVG Version: 2.1.1 Build 8)  -->
  <defs>
    <clipPath id="clippath">
      <rect x="12" y="12" width="1000" height="999.95" fill="none"/>
    </clipPath>
    <clipPath id="clippath-1">
      <path d="M1012,57v909.95c0,11.94-4.74,23.38-13.18,31.82s-19.89,13.18-31.82,13.18H57c-11.93,0-23.38-4.74-31.82-13.18-8.44-8.44-13.18-19.89-13.18-31.82V57c0-11.93,4.74-23.38,13.18-31.82,8.44-8.44,19.89-13.18,31.82-13.18h910c11.93,0,23.38,4.74,31.82,13.18,8.44,8.44,13.18,19.89,13.18,31.82Z" fill="none"/>
    </clipPath>
    <clipPath id="clippath-2">
      <rect x="12" y="12.02" width="1000" height="999.98" fill="none"/>
    </clipPath>
    <clipPath id="clippath-3">
      <path d="M1012,57.02v909.96c0,11.93-4.74,23.38-13.18,31.82-8.44,8.44-19.89,13.18-31.82,13.18H57c-11.93,0-23.38-4.74-31.82-13.18-8.44-8.44-13.18-19.89-13.18-31.82V57.02c0-11.93,4.74-23.38,13.18-31.82,8.44-8.44,19.89-13.18,31.82-13.18h910c11.93,0,23.38,4.74,31.82,13.18,8.44,8.44,13.18,19.89,13.18,31.82Z" fill="none"/>
    </clipPath>
  </defs>
  <g id="_x30_43919b310">
    <g clip-path="url(#clippath)">
      <g clip-path="url(#clippath-1)">
        <path d="M12,12h999.95v999.95H12V12Z" fill="#66bb6a"/>
      </g>
    </g>
    <g clip-path="url(#clippath-2)">
      <g clip-path="url(#clippath-3)">
        <path d="M1012,57.02v909.96c0,11.93-4.74,23.38-13.18,31.82-8.44,8.44-19.89,13.18-31.82,13.18H57c-11.93,0-23.38-4.74-31.82-13.18-8.44-8.44-13.18-19.89-13.18-31.82V57.02c0-11.93,4.74-23.38,13.18-31.82,8.44-8.44,19.89-13.18,31.82-13.18h910c11.93,0,23.38,4.74,31.82,13.18,8.44,8.44,13.18,19.89,13.18,31.82Z" fill="none" stroke="#bbd5f6" stroke-width="54"/>
      </g>
    </g>
  </g>
</svg>